<?xml version="1.0" encoding="UTF-8" standalone="no"?><!DOCTYPE svg PUBLIC "-//W3C//DTD SVG 1.1//EN" "http://www.w3.org/Graphics/SVG/1.1/DTD/svg11.dtd"><svg width="100%" height="100%" viewBox="0 0 751 278" version="1.1" xmlns="http://www.w3.org/2000/svg" xmlns:xlink="http://www.w3.org/1999/xlink" xml:space="preserve" xmlns:serif="http://www.serif.com/" style="fill-rule:evenodd;clip-rule:evenodd;stroke-linejoin:round;stroke-miterlimit:2;"><g><rect x="0" y="191.934" width="750.887" height="85.189" style="fill:#189343;"/><path d="M55.897,238.363c-0,2.875 -0.5,5.519 -1.498,7.933c-0.998,2.414 -2.375,4.493 -4.131,6.237c-1.755,1.745 -3.84,3.111 -6.254,4.098c-2.414,0.988 -5.036,1.482 -7.867,1.482l-23.107,-0c-0.614,-0 -1.185,-0.11 -1.711,-0.329c-0.527,-0.22 -0.982,-0.522 -1.366,-0.906c-0.384,-0.384 -0.686,-0.839 -0.906,-1.366c-0.219,-0.526 -0.329,-1.097 -0.329,-1.711l0,-38.578c0,-0.592 0.11,-1.152 0.329,-1.678c0.22,-0.527 0.522,-0.988 0.906,-1.383c0.384,-0.395 0.839,-0.702 1.366,-0.921c0.526,-0.22 1.097,-0.33 1.711,-0.33l23.107,0c2.831,0 5.453,0.494 7.867,1.482c2.414,0.987 4.499,2.353 6.254,4.098c1.756,1.744 3.133,3.829 4.131,6.254c0.998,2.424 1.498,5.063 1.498,7.916l-0,7.702Zm-8.558,-7.702c-0,-1.668 -0.269,-3.193 -0.807,-4.575c-0.538,-1.383 -1.3,-2.562 -2.288,-3.539c-0.987,-0.976 -2.167,-1.733 -3.538,-2.271c-1.372,-0.538 -2.891,-0.806 -4.559,-0.806l-18.861,-0l0,30.085l18.861,-0c1.668,-0 3.187,-0.269 4.559,-0.807c1.371,-0.537 2.551,-1.295 3.538,-2.271c0.988,-0.977 1.75,-2.151 2.288,-3.522c0.538,-1.372 0.807,-2.902 0.807,-4.592l-0,-7.702Z" style="fill:#fff;fill-rule:nonzero;"/><rect x="64.356" y="210.911" width="8.558" height="47.201" style="fill:#fff;fill-rule:nonzero;"/><path d="M128.279,244.222c-0,1.69 -0.214,3.21 -0.642,4.559c-0.428,1.35 -0.993,2.54 -1.695,3.571c-0.703,1.032 -1.526,1.91 -2.469,2.634c-0.944,0.724 -1.92,1.316 -2.93,1.777c-1.009,0.461 -2.035,0.801 -3.077,1.021c-1.043,0.219 -2.025,0.329 -2.946,0.329l-33.015,-0l0,-8.558l33.015,-0c1.646,-0 2.924,-0.483 3.834,-1.449c0.911,-0.965 1.366,-2.26 1.366,-3.884c0,-0.79 -0.12,-1.514 -0.362,-2.172c-0.241,-0.659 -0.587,-1.229 -1.037,-1.712c-0.449,-0.483 -0.998,-0.856 -1.645,-1.119c-0.648,-0.263 -1.366,-0.395 -2.156,-0.395l-19.684,0c-1.382,0 -2.875,-0.247 -4.476,-0.741c-1.602,-0.493 -3.089,-1.289 -4.461,-2.386c-1.371,-1.097 -2.512,-2.535 -3.423,-4.312c-0.911,-1.777 -1.366,-3.95 -1.366,-6.517c0,-2.568 0.455,-4.735 1.366,-6.501c0.911,-1.767 2.052,-3.204 3.423,-4.312c1.372,-1.108 2.859,-1.909 4.461,-2.403c1.601,-0.494 3.094,-0.741 4.476,-0.741l29.131,0l-0,8.559l-29.131,-0c-1.624,-0 -2.891,0.493 -3.802,1.481c-0.91,0.987 -1.366,2.293 -1.366,3.917c0,1.646 0.456,2.946 1.366,3.9c0.911,0.955 2.178,1.432 3.802,1.432l19.75,0c0.921,0.022 1.898,0.148 2.929,0.379c1.031,0.23 2.057,0.587 3.078,1.069c1.02,0.483 1.991,1.092 2.913,1.827c0.921,0.735 1.739,1.619 2.452,2.65c0.713,1.031 1.278,2.216 1.695,3.555c0.417,1.338 0.626,2.853 0.626,4.542Z" style="fill:#fff;fill-rule:nonzero;"/><path d="M177.554,219.47l-18.861,-0l-0,38.643l-8.558,-0l-0,-38.643l-18.894,-0l-0,-8.559l46.313,0l-0,8.559Z" style="fill:#fff;fill-rule:nonzero;"/><path d="M228.507,258.113l-8.558,-0l0,-11.587l-30.085,0l0,11.587l-8.558,-0l-0,-23.601c-0,-3.445 0.592,-6.616 1.777,-9.513c1.185,-2.896 2.831,-5.387 4.938,-7.472c2.106,-2.084 4.597,-3.708 7.472,-4.871c2.874,-1.163 6.012,-1.745 9.414,-1.745l19.288,0c0.593,0 1.152,0.11 1.679,0.33c0.527,0.219 0.987,0.526 1.382,0.921c0.395,0.395 0.703,0.856 0.922,1.383c0.22,0.526 0.329,1.086 0.329,1.678l0,42.89Zm-38.643,-20.145l30.085,0l0,-18.498l-15.042,-0c-0.264,-0 -0.818,0.038 -1.663,0.115c-0.844,0.077 -1.821,0.269 -2.929,0.576c-1.108,0.307 -2.277,0.779 -3.506,1.415c-1.229,0.636 -2.359,1.514 -3.39,2.633c-1.031,1.12 -1.882,2.518 -2.551,4.197c-0.669,1.679 -1.004,3.714 -1.004,6.106l0,3.456Z" style="fill:#fff;fill-rule:nonzero;"/><path d="M285.616,254.459c0,0.614 -0.115,1.185 -0.345,1.712c-0.231,0.526 -0.538,0.982 -0.922,1.366c-0.384,0.384 -0.839,0.685 -1.366,0.905c-0.527,0.219 -1.086,0.329 -1.679,0.329c-0.526,0 -1.059,-0.099 -1.596,-0.296c-0.538,-0.198 -1.015,-0.516 -1.432,-0.955l-31.27,-32.652l-0,33.245l-8.558,-0l-0,-43.548c-0,-0.878 0.247,-1.673 0.74,-2.386c0.494,-0.714 1.125,-1.246 1.893,-1.597c0.812,-0.329 1.646,-0.411 2.502,-0.247c0.856,0.165 1.591,0.565 2.205,1.202l31.27,32.619l0,-33.245l8.558,0l0,43.548Z" style="fill:#fff;fill-rule:nonzero;"/><path d="M337.821,258.113l-30.875,-0c-0.79,-0 -1.641,-0.094 -2.551,-0.28c-0.911,-0.187 -1.811,-0.477 -2.699,-0.872c-0.889,-0.395 -1.739,-0.906 -2.551,-1.531c-0.812,-0.625 -1.531,-1.382 -2.156,-2.271c-0.626,-0.889 -1.125,-1.92 -1.498,-3.094c-0.373,-1.174 -0.56,-2.496 -0.56,-3.967l0,-23.172c0,-0.79 0.094,-1.641 0.28,-2.551c0.187,-0.911 0.477,-1.811 0.872,-2.699c0.395,-0.889 0.911,-1.739 1.547,-2.551c0.637,-0.812 1.399,-1.531 2.288,-2.156c0.889,-0.626 1.915,-1.125 3.078,-1.498c1.163,-0.373 2.479,-0.56 3.95,-0.56l30.875,0l-0,8.559l-30.875,-0c-1.119,-0 -1.975,0.296 -2.568,0.888c-0.592,0.593 -0.888,1.47 -0.888,2.634l-0,23.106c-0,1.098 0.301,1.948 0.905,2.551c0.603,0.604 1.453,0.906 2.551,0.906l30.875,-0l-0,8.558Z" style="fill:#fff;fill-rule:nonzero;"/><path d="M384.726,238.824l-27.024,0l-0,-8.624l27.024,0l-0,8.624Zm3.851,19.289l-30.875,-0c-1.185,-0 -2.48,-0.209 -3.884,-0.626c-1.405,-0.417 -2.705,-1.102 -3.901,-2.057c-1.196,-0.954 -2.194,-2.194 -2.995,-3.719c-0.801,-1.526 -1.201,-3.396 -1.201,-5.613l-0,-30.875c-0,-0.592 0.109,-1.152 0.329,-1.678c0.219,-0.527 0.521,-0.988 0.905,-1.383c0.384,-0.395 0.839,-0.702 1.366,-0.921c0.527,-0.22 1.097,-0.33 1.711,-0.33l38.545,0l-0,8.559l-34.298,-0l-0,26.628c-0,1.12 0.296,1.975 0.888,2.568c0.593,0.592 1.46,0.889 2.601,0.889l30.809,-0l-0,8.558Z" style="fill:#fff;fill-rule:nonzero;"/><rect x="418.267" y="203.176" width="8.591" height="62.705" style="fill:#fff;fill-rule:nonzero;"/><path d="M471.92,258.113l-8.591,-0l-0,-38.643l-7.735,-0l-0,-8.559l16.326,0l-0,47.202Z" style="fill:#fff;fill-rule:nonzero;"/><path d="M535.842,238.363c0,1.931 -0.247,3.758 -0.74,5.481c-0.494,1.722 -1.191,3.319 -2.09,4.789c-0.9,1.47 -1.964,2.787 -3.193,3.95c-1.229,1.163 -2.573,2.156 -4.032,2.979c-1.46,0.823 -3.012,1.454 -4.658,1.892c-1.646,0.439 -3.325,0.659 -5.036,0.659l-15.438,-0c-1.733,-0 -3.423,-0.22 -5.069,-0.659c-1.645,-0.438 -3.198,-1.069 -4.657,-1.892c-1.46,-0.823 -2.804,-1.816 -4.032,-2.979c-1.229,-1.163 -2.288,-2.48 -3.177,-3.95c-0.889,-1.47 -1.58,-3.067 -2.074,-4.789c-0.493,-1.723 -0.74,-3.55 -0.74,-5.481l-0,-7.702c-0,-2.897 0.543,-5.552 1.629,-7.966c1.086,-2.414 2.54,-4.493 4.362,-6.237c1.821,-1.745 3.922,-3.105 6.303,-4.082c2.381,-0.976 4.866,-1.465 7.455,-1.465l15.438,0c1.711,0 3.39,0.22 5.036,0.659c1.646,0.439 3.198,1.069 4.658,1.892c1.459,0.823 2.803,1.816 4.032,2.979c1.229,1.163 2.293,2.48 3.193,3.95c0.899,1.47 1.596,3.067 2.09,4.789c0.493,1.723 0.74,3.55 0.74,5.481l0,7.702Zm-8.624,-7.702c0,-1.69 -0.307,-3.226 -0.921,-4.608c-0.615,-1.383 -1.432,-2.568 -2.452,-3.555c-1.021,-0.988 -2.2,-1.745 -3.539,-2.271c-1.338,-0.527 -2.743,-0.779 -4.213,-0.757l-15.438,-0c-1.426,-0.022 -2.814,0.224 -4.164,0.74c-1.349,0.516 -2.545,1.262 -3.587,2.238c-1.043,0.977 -1.877,2.162 -2.502,3.555c-0.625,1.394 -0.938,2.946 -0.938,4.658l-0,7.702c-0,1.712 0.307,3.259 0.922,4.641c0.614,1.383 1.437,2.562 2.468,3.539c1.032,0.976 2.222,1.728 3.572,2.255c1.349,0.526 2.759,0.779 4.229,0.757l15.438,-0c1.69,-0 3.22,-0.28 4.592,-0.84c1.371,-0.559 2.54,-1.333 3.505,-2.32c0.966,-0.988 1.712,-2.167 2.238,-3.539c0.527,-1.371 0.79,-2.869 0.79,-4.493l0,-7.702Zm-3.719,-6.254c0.329,0.483 0.549,1.004 0.658,1.563c0.11,0.56 0.11,1.109 0,1.646c-0.109,0.538 -0.323,1.043 -0.642,1.514c-0.318,0.472 -0.729,0.873 -1.234,1.202l-23.107,15.437c-0.373,0.286 -0.757,0.483 -1.152,0.593c-0.395,0.109 -0.801,0.164 -1.218,0.164c-0.702,0 -1.371,-0.164 -2.008,-0.493c-0.636,-0.33 -1.152,-0.801 -1.547,-1.416c-0.329,-0.483 -0.548,-1.004 -0.658,-1.563c-0.11,-0.56 -0.115,-1.108 -0.017,-1.646c0.099,-0.538 0.302,-1.042 0.609,-1.514c0.308,-0.472 0.714,-0.872 1.218,-1.202l23.173,-15.437c0.483,-0.329 1.004,-0.549 1.564,-0.658c0.559,-0.11 1.108,-0.11 1.645,-0c0.538,0.109 1.043,0.318 1.514,0.625c0.472,0.307 0.873,0.702 1.202,1.185Z" style="fill:#fff;fill-rule:nonzero;"/><path d="M613.524,238.363c-0,2.875 -0.5,5.519 -1.498,7.933c-0.998,2.414 -2.375,4.493 -4.131,6.237c-1.755,1.745 -3.84,3.111 -6.254,4.098c-2.414,0.988 -5.036,1.482 -7.867,1.482l-23.107,-0c-0.614,-0 -1.185,-0.11 -1.711,-0.329c-0.527,-0.22 -0.982,-0.522 -1.366,-0.906c-0.384,-0.384 -0.686,-0.839 -0.906,-1.366c-0.219,-0.526 -0.329,-1.097 -0.329,-1.711l0,-38.578c0,-0.592 0.11,-1.152 0.329,-1.678c0.22,-0.527 0.522,-0.988 0.906,-1.383c0.384,-0.395 0.839,-0.702 1.366,-0.921c0.526,-0.22 1.097,-0.33 1.711,-0.33l23.107,0c2.831,0 5.453,0.494 7.867,1.482c2.414,0.987 4.499,2.353 6.254,4.098c1.756,1.744 3.133,3.829 4.131,6.254c0.998,2.424 1.498,5.063 1.498,7.916l-0,7.702Zm-8.558,-7.702c-0,-1.668 -0.269,-3.193 -0.807,-4.575c-0.537,-1.383 -1.3,-2.562 -2.287,-3.539c-0.988,-0.976 -2.167,-1.733 -3.539,-2.271c-1.371,-0.538 -2.891,-0.806 -4.559,-0.806l-18.861,-0l0,30.085l18.861,-0c1.668,-0 3.188,-0.269 4.559,-0.807c1.372,-0.537 2.551,-1.295 3.539,-2.271c0.987,-0.977 1.75,-2.151 2.287,-3.522c0.538,-1.372 0.807,-2.902 0.807,-4.592l-0,-7.702Z" style="fill:#fff;fill-rule:nonzero;"/><rect x="621.983" y="210.911" width="8.558" height="47.201" style="fill:#fff;fill-rule:nonzero;"/><path d="M686.86,258.113l-8.558,-0l0,-11.587l-30.085,0l0,11.587l-8.558,-0l-0,-23.601c-0,-3.445 0.592,-6.616 1.777,-9.513c1.185,-2.896 2.831,-5.387 4.938,-7.472c2.106,-2.084 4.597,-3.708 7.472,-4.871c2.874,-1.163 6.012,-1.745 9.414,-1.745l19.288,0c0.593,0 1.152,0.11 1.679,0.33c0.527,0.219 0.987,0.526 1.382,0.921c0.395,0.395 0.703,0.856 0.922,1.383c0.219,0.526 0.329,1.086 0.329,1.678l0,42.89Zm-38.643,-20.145l30.085,0l0,-18.498l-15.042,-0c-0.264,-0 -0.818,0.038 -1.663,0.115c-0.845,0.077 -1.821,0.269 -2.929,0.576c-1.108,0.307 -2.277,0.779 -3.506,1.415c-1.229,0.636 -2.359,1.514 -3.39,2.633c-1.031,1.12 -1.882,2.518 -2.551,4.197c-0.669,1.679 -1.004,3.714 -1.004,6.106l0,3.456Z" style="fill:#fff;fill-rule:nonzero;"/><path d="M742.159,244.222c-0,1.69 -0.214,3.21 -0.642,4.559c-0.428,1.35 -0.993,2.54 -1.695,3.571c-0.702,1.032 -1.525,1.91 -2.469,2.634c-0.944,0.724 -1.92,1.316 -2.929,1.777c-1.01,0.461 -2.036,0.801 -3.078,1.021c-1.042,0.219 -2.024,0.329 -2.946,0.329l-33.015,-0l0,-8.558l33.015,-0c1.646,-0 2.924,-0.483 3.835,-1.449c0.91,-0.965 1.366,-2.26 1.366,-3.884c-0,-0.79 -0.121,-1.514 -0.362,-2.172c-0.242,-0.659 -0.587,-1.229 -1.037,-1.712c-0.45,-0.483 -0.999,-0.856 -1.646,-1.119c-0.647,-0.263 -1.366,-0.395 -2.156,-0.395l-19.684,0c-1.382,0 -2.874,-0.247 -4.476,-0.741c-1.602,-0.493 -3.089,-1.289 -4.46,-2.386c-1.372,-1.097 -2.513,-2.535 -3.424,-4.312c-0.91,-1.777 -1.366,-3.95 -1.366,-6.517c0,-2.568 0.456,-4.735 1.366,-6.501c0.911,-1.767 2.052,-3.204 3.424,-4.312c1.371,-1.108 2.858,-1.909 4.46,-2.403c1.602,-0.494 3.094,-0.741 4.476,-0.741l29.131,0l-0,8.559l-29.131,-0c-1.624,-0 -2.891,0.493 -3.801,1.481c-0.911,0.987 -1.366,2.293 -1.366,3.917c-0,1.646 0.455,2.946 1.366,3.9c0.91,0.955 2.177,1.432 3.801,1.432l19.75,0c0.921,0.022 1.898,0.148 2.929,0.379c1.032,0.23 2.058,0.587 3.078,1.069c1.02,0.483 1.991,1.092 2.913,1.827c0.922,0.735 1.739,1.619 2.452,2.65c0.713,1.031 1.278,2.216 1.695,3.555c0.417,1.338 0.626,2.853 0.626,4.542Z" style="fill:#fff;fill-rule:nonzero;"/><path d="M173.896,71.725c0,7.093 -0.876,13.429 -2.63,19.007c-1.753,5.579 -4.124,10.5 -7.112,14.764c-2.989,4.263 -6.436,7.909 -10.341,10.938c-3.905,3.028 -7.989,5.499 -12.253,7.411c-4.263,1.913 -8.567,3.308 -12.91,4.184c-4.344,0.877 -8.428,1.315 -12.253,1.315l-70.291,0l0,-31.081l70.291,0c3.984,-0.318 7.591,-1.135 10.818,-2.45c3.228,-1.315 5.997,-3.088 8.308,-5.32c2.311,-2.231 4.105,-4.921 5.38,-8.069c1.275,-3.148 1.912,-6.714 1.912,-10.699l0,-14.106c-0.398,-3.905 -1.235,-7.491 -2.51,-10.759c-1.275,-3.267 -3.008,-6.056 -5.2,-8.368c-2.192,-2.311 -4.842,-4.124 -7.95,-5.439c-3.108,-1.315 -6.694,-1.972 -10.758,-1.972l-70.052,-0c-4.144,-0 -7.292,1.076 -9.444,3.227c-2.151,2.152 -3.227,5.26 -3.227,9.325l-0,127.79l-31.081,-0l-0,-127.79c-0,-7.97 1.454,-14.744 4.363,-20.322c2.909,-5.579 6.535,-10.082 10.879,-13.509c4.343,-3.426 9.065,-5.917 14.165,-7.471c5.101,-1.554 9.803,-2.331 14.106,-2.331l70.291,-0c7.013,-0 13.309,0.897 18.887,2.69c5.579,1.793 10.5,4.184 14.764,7.172c4.263,2.989 7.889,6.436 10.878,10.341c2.988,3.905 5.459,7.989 7.412,12.253c1.952,4.263 3.367,8.567 4.243,12.91c0.877,4.343 1.315,8.428 1.315,12.253l0,14.106Z" style="fill-rule:nonzero;"/><path d="M357.871,171.423l-141.777,-0c-2.231,-0 -4.303,-0.399 -6.216,-1.196c-1.912,-0.797 -3.566,-1.892 -4.961,-3.287c-1.394,-1.395 -2.49,-3.048 -3.287,-4.961c-0.797,-1.913 -1.196,-3.985 -1.196,-6.216l0,-155.763l31.081,0l0,140.342l126.356,-0l-0,31.081Z" style="fill-rule:nonzero;"/><path d="M548.899,171.423l-31.081,-0l-0,-42.079l-109.261,0l-0,42.079l-31.081,-0l-0,-85.712c-0,-12.512 2.151,-24.027 6.455,-34.547c4.303,-10.52 10.281,-19.565 17.931,-27.136c7.651,-7.571 16.696,-13.468 27.136,-17.692c10.44,-4.224 21.836,-6.336 34.189,-6.336l70.052,0c2.151,0 4.184,0.398 6.096,1.195c1.913,0.797 3.586,1.913 5.021,3.348c1.434,1.434 2.55,3.108 3.347,5.02c0.797,1.913 1.196,3.945 1.196,6.097l-0,155.763Zm-140.342,-73.16l109.261,0l-0,-67.182l-54.631,-0c-0.956,-0 -2.968,0.139 -6.037,0.418c-3.068,0.279 -6.614,0.976 -10.639,2.092c-4.025,1.116 -8.268,2.829 -12.731,5.141c-4.463,2.311 -8.567,5.498 -12.313,9.563c-3.746,4.064 -6.834,9.145 -9.264,15.241c-2.431,6.097 -3.646,13.489 -3.646,22.175l-0,12.552Z" style="fill-rule:nonzero;"/><path d="M748.294,57.38c0,7.093 -0.896,13.429 -2.69,19.007c-1.793,5.579 -4.164,10.5 -7.112,14.764c-2.949,4.263 -6.396,7.909 -10.341,10.938c-3.945,3.028 -8.029,5.518 -12.253,7.471c-4.224,1.952 -8.507,3.367 -12.85,4.244c-4.344,0.876 -8.428,1.315 -12.253,1.315l-12.552,-0l-0,56.304l-31.32,-0l-0,-56.304l-12.433,-0c-3.825,-0 -7.909,-0.439 -12.253,-1.315c-4.343,-0.877 -8.646,-2.292 -12.91,-4.244c-4.264,-1.953 -8.348,-4.443 -12.253,-7.471c-3.905,-3.029 -7.352,-6.675 -10.341,-10.938c-2.988,-4.264 -5.379,-9.205 -7.172,-14.824c-1.793,-5.618 -2.69,-11.934 -2.69,-18.947l0,-57.38l31.081,0l0,57.38c0,4.064 0.638,7.71 1.913,10.938c1.275,3.228 3.068,5.997 5.379,8.308c2.311,2.311 5.121,4.085 8.428,5.32c3.307,1.235 6.993,1.853 11.057,1.853l56.066,-0c2.948,-0.478 5.977,-1.096 9.085,-1.853c3.108,-0.757 5.937,-2.052 8.487,-3.885c2.55,-1.833 4.662,-4.383 6.336,-7.651c1.673,-3.267 2.51,-7.611 2.51,-13.03l0,-57.38l31.081,0l0,57.38Z" style="fill-rule:nonzero;"/></g></svg>