<?xml version="1.0" encoding="UTF-8" standalone="no"?><!DOCTYPE svg PUBLIC "-//W3C//DTD SVG 1.1//EN" "http://www.w3.org/Graphics/SVG/1.1/DTD/svg11.dtd"><svg width="100%" height="100%" viewBox="0 0 1715 651" version="1.1" xmlns="http://www.w3.org/2000/svg" xmlns:xlink="http://www.w3.org/1999/xlink" xml:space="preserve" xmlns:serif="http://www.serif.com/" style="fill-rule:evenodd;clip-rule:evenodd;stroke-linejoin:round;stroke-miterlimit:2;"><g><path d="M1619.08,385.21c4.579,3.016 13.637,-1.313 17.475,-3.192c5.183,-2.538 11.333,-5.279 18.246,-3.567c-0.7,0.917 -2.967,2.721 -4.055,3.525c-1.504,1.109 -2.841,2.117 -4.545,3.121c-3.28,1.933 -7.1,3.233 -10.105,5.183c-6.575,4.28 -7.354,12.034 -11.183,20.096c-3.775,7.946 -8.462,12.667 -13.587,17.354l-4.267,3.421c-1.388,1.104 -2.933,2.109 -4.446,3.229c-1.437,1.075 -3.054,2.18 -4.412,3.267c-0.825,0.663 -1.392,1.129 -2.142,1.8c-0.675,0.604 -1.492,1.146 -1.371,2.517c2.296,2.479 12.671,-2.459 15.013,-3.542c11.554,-5.346 20.12,-13.067 26.425,-23.921c0.987,-1.696 2.937,-5.175 3.479,-6.941c2.679,0.295 16.037,3.775 16.504,6.075c-0.138,2.458 -8.363,12.412 -9.888,14.191l-8.133,9.909c-0.587,0.804 -2.396,2.875 -1.829,4.075c2.662,1.537 12.871,-6.571 14.212,-7.655c4.225,-3.408 7.934,-6.791 11.463,-11.066c6.887,-8.338 7.312,-14.992 -3.075,-20.754c-3.242,-1.8 -6.796,-2.805 -7.854,-3.417c2.225,-1.35 4.412,-2.175 7.571,-4.192c1.216,-0.779 2.437,-1.621 3.516,-2.379c0.638,-0.442 1.125,-0.829 1.7,-1.254c0.717,-0.525 1.034,-0.913 1.813,-1.338c3.496,13.055 14.487,12.68 25.358,8.921c1.938,-0.671 7.938,-2.8 7.725,-5.196c-3.525,-2.045 -15.092,0.963 -20.696,-0.987c-2.079,-0.721 -2.612,-2.108 -3.246,-4.425c-2.295,-8.442 -2.445,-14.092 -12.854,-17.458c-9.462,-3.063 -17.091,-1.942 -24.546,2.283c-5.154,2.921 -8.65,6.396 -13.758,9.037c-2.017,1.046 -4.408,1.755 -4.508,3.28m60.725,-21.813c-10.471,1.317 -8.45,17.142 2.054,15.663c3.871,-0.542 7.333,-4.121 6.704,-8.917c-0.508,-3.858 -4.146,-7.325 -8.758,-6.746m-29.621,-19.325c-36.596,-1.012 -67.083,27.833 -68.096,64.429c-1.012,36.596 27.833,67.079 64.429,68.092c36.592,1.012 67.084,-27.833 68.096,-64.429c1.008,-36.592 -27.837,-67.079 -64.429,-68.092" style="fill:#189343;"/><path d="M1437.05,404.423c-11.055,1.309 -20.763,11.417 -19.359,24.642c1.213,11.333 10.967,20.879 23.834,20.4c11.654,-0.438 21.658,-10.096 21.862,-22.388c0.2,-12.237 -9.15,-22.266 -21.396,-22.745c0.879,-4.471 6.067,-11.713 8.992,-14.88c1.771,-1.92 4.175,-2.795 4.321,-5.129c0.096,-1.604 -0.804,-2.408 -2.392,-2.379c-3.146,0.063 -8.221,6.571 -9.887,9.067c-2.275,3.408 -4.95,8.8 -5.975,13.412m-58.917,-1.762c-6.971,0.716 -11.833,3.846 -15.042,7.533c-3.483,4.008 -6.129,10.221 -5.346,17.317c1.263,11.446 11.65,21.687 25.259,20.183c11.475,-1.262 21.554,-11.408 20.316,-24.867c-1.083,-11.779 -11.516,-21.57 -25.187,-20.166m39.187,-1.342l-4.504,6.958c-2.896,4.65 -5.95,11.288 -6.441,17.017c-0.213,2.471 0.462,9.017 2.929,8.225c0.621,-0.271 0.346,0.113 0.712,-0.754l0.921,-3.696c2.104,-7.4 9.129,-16.546 14.367,-21.825c0.571,-0.579 0.783,-0.975 1.416,-1.554c3.075,-2.838 4.284,-7.271 1.596,-10.55c-1.758,-2.142 -4.158,-3.371 -7.596,-4.546c-4.2,-1.442 -9.679,-2.671 -14.237,-4.033c-1.583,-0.475 -3.196,-1.263 -4.579,-1.65c0.712,-1.313 3.333,-3.179 5.012,-4.021c2.134,-1.063 4.446,-1.65 7.113,-1.838c0.291,7.825 6.437,12.259 14.887,11.867c7.188,-0.329 15.296,-4.175 18.854,-7.704c5.167,-5.117 -2.745,-3.258 -5.97,-2.671c-3.842,0.7 -7.759,1.492 -11.855,1.258c-5.445,-0.312 -6.979,-1.845 -4.125,-6.75c0.875,-1.5 2.009,-2.766 1.35,-5.191c-0.487,-1.809 -1.716,-3.054 -2.8,-3.884c-5.533,-4.229 -15.358,-2.395 -21.229,0.346c-7.996,3.729 -19.312,13.484 -14.958,23.325c1.246,2.813 3.921,5.025 7,6.454c6.708,3.121 14.654,3.417 22.137,5.217m-38.145,3.8c-9.675,0.9 -18.205,9.354 -17.375,20.513c0.733,9.858 9.208,18.354 20.408,17.375c9.646,-0.842 18,-9.417 17.037,-20.521c-0.816,-9.338 -9.312,-18.367 -20.07,-17.367m61.72,22.475c-1.958,-0.296 -3.966,-5.796 -4.491,-8.35c-0.409,-1.975 -0.571,-3.742 -0.579,-5.779c-0.013,-2.263 0.466,-4.229 0.516,-6.263c-8.183,1.93 -15.937,10.35 -14.437,21.346c1.25,9.1 9.437,16.95 20.133,16.129c9.408,-0.725 17.454,-8.8 17.238,-19.3c-0.205,-9.75 -8.184,-18.212 -17.955,-18.787c-0.466,0.612 -0.612,1.571 -0.791,2.312c-0.213,0.875 -0.367,1.613 -0.521,2.492c-0.65,3.788 -0.708,7.371 -0.025,11.175c0.25,1.371 1.071,3.863 0.912,5.025m-6.041,-69.05c-9.85,1.742 -7.617,16.692 2.479,15.258c3.833,-0.545 7.187,-4.241 6.467,-8.92c-0.58,-3.738 -4.209,-7.18 -8.946,-6.338m-20.125,-14.471c-36.596,-1.016 -67.084,27.829 -68.092,64.429c-1.012,36.592 27.829,67.08 64.429,68.092c36.592,1.013 67.075,-27.833 68.088,-64.429c1.016,-36.596 -27.829,-67.083 -64.425,-68.092" style="fill:#189343;"/><path d="M1140.89,394.556c-0.159,3.008 5.57,2.429 7.72,1.808c2.863,-0.833 5.159,-2.004 7.567,-3.279c2.146,-1.133 4.763,-2.846 6.954,-3.758c1.975,-0.821 3.242,1.079 4.679,2.766l3.746,4.375c0.621,0.7 2.575,2.042 0.988,3.359l-12.963,8.691c-1.037,0.659 -6.287,3.779 -6.679,4.259c2.675,1.15 6.963,1.354 9.792,0.308c2.858,-1.058 4.816,-2.788 7.962,-3.6c3.109,-0.8 7.146,-0.788 10.242,0.187c1.346,0.421 2.925,1.192 4.017,1.88c4.787,3.004 3.083,2.658 5.454,0.937c5.1,-3.696 9.175,-1.142 18.362,-2.796c7.075,-1.279 12.367,-4.112 17.034,-7.471c1.979,-1.42 4.866,-3.937 6.162,-6.237c2.338,-4.175 -6.067,0.112 -7.087,0.521c-6.042,2.429 -11.988,4.704 -19.425,4.916c-7.375,0.209 -14.767,-1.662 -19.909,-5.07c-5.6,-3.717 -8.483,-7.871 -12.887,-11.917c-7.788,-7.154 -13.125,-2.783 -20.167,3.254c-1.8,1.546 -6.933,5.425 -9.175,6.133c-0.858,0.271 -1.729,0.334 -2.387,0.734m-19.759,22.662c1.575,1.654 4.329,1.704 6.779,0.954c4.225,-1.295 6.313,-4.8 13.567,-3.704c6.092,0.921 9.983,7.817 20.821,5.3c5.2,-1.204 7.017,-4.587 13.012,-4.712c6.834,-0.142 8.063,3.146 13.171,4.841c5.117,1.696 10.617,0.884 14.596,-1.437c1.854,-1.079 3.542,-2.229 5.958,-2.796c6.796,-1.587 9.888,1.271 14.009,3.2c1.421,0.663 6.029,2.208 7.475,0.983c-0.692,-0.541 -2.429,-0.7 -3.4,-1.054c-1.2,-0.437 -2.113,-0.887 -3.138,-1.504c-1.946,-1.175 -3.304,-2.504 -5.716,-3.55c-4.88,-2.112 -10.625,-1.579 -14.871,0.683c-1.988,1.059 -3.829,2.142 -6.446,2.48c-7.133,0.92 -9.792,-2.509 -13.925,-4.596c-4.238,-2.138 -10.642,-2.171 -15.092,-0.059c-1.933,0.917 -4.037,2.317 -6.208,2.896c-2.429,0.65 -5.783,0.459 -8.117,-0.304c-2.283,-0.754 -3.987,-2.262 -5.941,-3.337c-4.13,-2.267 -10.313,-2.796 -14.984,-1.03c-2.196,0.83 -3.983,2.03 -6.033,3.088c-2.592,1.342 -5.408,1.729 -5.517,3.658m109.163,10.409c-0.55,-0.671 -3.184,-0.492 -6.388,-2.517c-1.966,-1.242 -3.275,-2.467 -5.579,-3.504c-4.796,-2.175 -10.467,-1.846 -14.833,0.391c-1.979,1.017 -3.846,2.184 -6.367,2.571c-2.587,0.4 -5.783,0.092 -7.967,-0.837c-2.108,-0.896 -3.65,-2.309 -5.716,-3.379c-2.2,-1.142 -4.496,-1.775 -7.342,-1.9c-10.729,-0.463 -11.5,6.67 -21.542,4.429c-5.058,-1.125 -10.091,-8.096 -20.812,-5.092c-3.021,0.846 -5.854,2.883 -9.029,4.288c-1.042,0.458 -2.238,0.845 -3.084,1.475c-2.87,2.141 2.634,2.979 4.584,2.679c5.262,-0.809 6.154,-4.563 13.691,-4.171c7.692,0.396 9.909,7.621 21.255,5.612c5.508,-0.97 7.587,-4.454 13.025,-4.85c7.216,-0.52 8.404,2.659 13.458,4.575c4.987,1.896 10.875,1.275 14.962,-1.058c1.909,-1.087 3.555,-2.292 6.03,-2.908c2.4,-0.596 5.712,-0.559 8.12,0.179c2.48,0.758 3.975,2.037 6.105,3.004c1.504,0.683 5.779,2.033 7.429,1.013m-34.634,-48.975c-4.941,0.629 -9.208,4.954 -8.529,10.829c0.559,4.841 5.038,9.225 10.867,8.508c4.912,-0.604 9.262,-5.104 8.467,-10.992c-0.638,-4.762 -5.042,-9.083 -10.805,-8.345m-16.383,-34.58c-36.592,-1.012 -67.083,27.834 -68.096,64.43c-1.008,36.591 27.838,67.079 64.429,68.091c36.596,1.013 67.084,-27.833 68.096,-64.429c1.009,-36.596 -27.833,-67.079 -64.429,-68.092" style="fill:#189343;"/><path d="M196.556,32.253c111.283,0.496 203.729,91.834 206.483,204.004c2.775,112.192 -85.192,202.717 -196.475,202.205c-111.275,-0.496 -203.725,-91.838 -206.5,-204.009c-2.775,-112.171 85.212,-202.716 196.492,-202.2m153.541,201.129l-235.8,124.463l-6.7,-245.771l242.5,121.308Z" style="fill:#189343;"/><g><path d="M771.454,97.921c-0,41.425 -33.479,74.904 -74.904,74.904l-179.517,0l0,125.117l-43.937,0l-0,-169.054l223.454,-0c23.433,-0 30.966,-18.833 30.966,-46.45c0,-15.067 -2.091,-38.496 -30.966,-38.496l-223.454,0l-0,-43.942l223.454,0c41.425,0 74.904,33.48 74.904,74.905l-0,23.016Z" style="fill:#231f20;fill-rule:nonzero;"/><path d="M1111.26,254.421l-0,43.521l-297.938,0l0,-297.521l44.359,0l-0.421,254l254,0Z" style="fill:#231f20;fill-rule:nonzero;"/><path d="M1343.94,172.404l-47.704,-112.146l-48.125,112.146l95.829,0Zm-149.391,125.538l-47.7,-0l127.208,-297.942l43.933,0l127.217,297.942l-47.708,-0l-37.242,-87.875l-128.046,-0l-37.662,87.875Z" style="fill:#231f20;fill-rule:nonzero;"/><path d="M1668.26,0l43.937,0l0,97.921c0,41.009 -33.9,74.904 -74.908,74.904l-52.304,0l-0,125.117l-43.938,0l0,-125.117c-13.391,0 -27.2,0.417 -38.079,0.417l-10.879,0c-46.029,-2.929 -78.25,-34.729 -78.25,-75.321l0,-97.921l43.938,0l-0,97.921c-0,15.484 12.97,31.384 29.295,31.384l150.217,-0c12.133,-0 23.438,-10.042 30.971,-18.413l-0,-110.892Z" style="fill:#231f20;fill-rule:nonzero;"/></g><path d="M118.036,596.067l-19.758,-51.558l-19.763,51.558l39.521,0Zm2.408,6.338l-44.466,-0l-8.613,22.546l-7.096,-0l34.459,-88.675l7.091,-0l34.334,88.675l-7.096,-0l-8.613,-22.546Z" style="fill:#231f20;fill-rule:nonzero;"/><path d="M215.224,608.354c0,10.388 -9.121,17.992 -22.675,17.992c-12.666,-0 -21.033,-5.959 -24.071,-14.067l5.446,-3.158c2.284,6.837 9.121,11.146 18.625,11.146c8.867,-0 16.338,-3.93 16.338,-11.913c-0,-17.225 -38.379,-7.342 -38.379,-30.15c-0,-10.004 8.612,-17.983 21.533,-17.983c10.258,-0 18.117,4.937 21.533,12.662l-5.316,3.042c-2.663,-6.583 -9.25,-9.625 -16.217,-9.625c-8.233,-0 -15.204,4.304 -15.204,11.904c-0,16.975 38.387,6.971 38.387,30.15" style="fill:#231f20;fill-rule:nonzero;"/><path d="M294.794,608.354c-0,10.388 -9.121,17.992 -22.675,17.992c-12.667,-0 -21.029,-5.959 -24.071,-14.067l5.446,-3.158c2.283,6.837 9.125,11.146 18.625,11.146c8.871,-0 16.342,-3.93 16.342,-11.913c-0,-17.225 -38.384,-7.342 -38.384,-30.15c0,-10.004 8.613,-17.983 21.538,-17.983c10.258,-0 18.112,4.937 21.533,12.662l-5.321,3.042c-2.662,-6.583 -9.25,-9.625 -16.212,-9.625c-8.238,-0 -15.204,4.304 -15.204,11.904c-0,16.975 38.383,6.971 38.383,30.15" style="fill:#231f20;fill-rule:nonzero;"/><path d="M335.856,590.369l50.925,0c-1.391,-15.454 -12.291,-24.067 -24.704,-24.067c-14.437,0 -24.954,10.005 -26.221,24.067m57.513,3.163c-0,1.016 -0.129,2.029 -0.129,3.045l-57.384,0c1.521,14.313 12.413,23.688 26.859,23.688c10.383,-0 18.237,-4.813 21.912,-11.529l5.575,3.291c-5.196,8.617 -15.075,14.317 -27.616,14.317c-19.509,0 -33.317,-13.933 -33.317,-33.062c-0,-18.621 13.429,-33.063 32.808,-33.063c19.259,0 31.292,15.958 31.292,33.313" style="fill:#231f20;fill-rule:nonzero;"/><path d="M473.704,608.354c0,10.388 -9.121,17.992 -22.675,17.992c-12.666,-0 -21.029,-5.959 -24.071,-14.067l5.446,-3.158c2.284,6.837 9.125,11.146 18.625,11.146c8.871,-0 16.342,-3.93 16.342,-11.913c-0,-17.225 -38.383,-7.342 -38.383,-30.15c-0,-10.004 8.612,-17.983 21.537,-17.983c10.258,-0 18.113,4.937 21.533,12.662l-5.32,3.042c-2.663,-6.583 -9.25,-9.625 -16.213,-9.625c-8.237,-0 -15.204,4.304 -15.204,11.904c-0,16.975 38.383,6.971 38.383,30.15" style="fill:#231f20;fill-rule:nonzero;"/><path d="M553.273,608.354c0,10.388 -9.116,17.992 -22.675,17.992c-12.666,-0 -21.033,-5.959 -24.07,-14.067l5.45,-3.158c2.279,6.837 9.116,11.146 18.62,11.146c8.871,-0 16.342,-3.93 16.342,-11.913c0,-17.225 -38.383,-7.342 -38.383,-30.15c-0,-10.004 8.612,-17.983 21.533,-17.983c10.258,-0 18.117,4.937 21.538,12.662l-5.321,3.042c-2.659,-6.583 -9.25,-9.625 -16.217,-9.625c-8.229,-0 -15.2,4.304 -15.2,11.904c0,16.975 38.383,6.971 38.383,30.15" style="fill:#231f20;fill-rule:nonzero;"/><path d="M647.793,593.28c-0,-15.075 -11.655,-26.979 -26.73,-26.979c-15.075,0 -26.854,11.904 -26.854,26.979c0,15.075 11.779,26.988 26.854,26.988c15.075,-0 26.73,-11.913 26.73,-26.988m-60.046,0c-0,-18.75 14.821,-33.062 33.316,-33.062c18.371,-0 33.192,14.312 33.192,33.062c0,18.75 -14.821,33.067 -33.192,33.067c-18.495,0 -33.316,-14.317 -33.316,-33.067" style="fill:#231f20;fill-rule:nonzero;"/><path d="M722.304,560.726l0,6.079c-10.9,0 -21.162,6.713 -21.162,22.93l-0,35.216l-6.329,0l-0,-63.337l6.329,-0l-0,12.412c4.312,-10.008 12.541,-13.3 21.162,-13.3" style="fill:#231f20;fill-rule:nonzero;"/><path d="M760.446,561.615l6.334,-0l-0,63.337l-6.334,0l0,-63.337Zm-1.9,-20.396c0,-2.662 2.28,-4.942 5.067,-4.942c2.788,0 5.067,2.28 5.067,4.942c-0,2.788 -2.279,5.063 -5.067,5.063c-2.787,-0 -5.067,-2.275 -5.067,-5.063" style="fill:#231f20;fill-rule:nonzero;"/><path d="M867.373,593.28c-0,-15.075 -11.655,-26.979 -26.73,-26.979c-15.075,0 -26.854,11.904 -26.854,26.979c0,15.075 11.779,26.988 26.854,26.988c15.075,-0 26.73,-11.913 26.73,-26.988m6.462,-31.666l0,63.337l-6.462,0l-0,-14.316c-5.321,9.5 -15.075,15.712 -27.242,15.712c-17.983,0 -32.804,-14.317 -32.804,-33.067c-0,-18.75 14.821,-33.062 32.804,-33.062c12.167,-0 21.921,6.204 27.242,15.704l-0,-14.308l6.462,-0Z" style="fill:#231f20;fill-rule:nonzero;"/><path d="M980.149,590.369l50.929,0c-1.395,-15.454 -12.291,-24.067 -24.708,-24.067c-14.437,0 -24.954,10.005 -26.221,24.067m57.513,3.163c-0,1.016 -0.125,2.029 -0.125,3.045l-57.388,0c1.521,14.313 12.417,23.688 26.854,23.688c10.388,-0 18.246,-4.813 21.921,-11.529l5.575,3.291c-5.2,8.617 -15.079,14.317 -27.621,14.317c-19.512,0 -33.312,-13.933 -33.312,-33.062c-0,-18.621 13.425,-33.063 32.804,-33.063c19.254,0 31.292,15.958 31.292,33.313" style="fill:#231f20;fill-rule:nonzero;"/><path d="M1118,608.354c0,10.388 -9.116,17.992 -22.671,17.992c-12.666,-0 -21.029,-5.959 -24.07,-14.067l5.445,-3.158c2.284,6.837 9.117,11.146 18.625,11.146c8.867,-0 16.338,-3.93 16.338,-11.913c-0,-17.225 -38.383,-7.342 -38.383,-30.15c-0,-10.004 8.616,-17.983 21.537,-17.983c10.258,-0 18.117,4.937 21.529,12.662l-5.316,3.042c-2.663,-6.583 -9.25,-9.625 -16.213,-9.625c-8.233,-0 -15.2,4.304 -15.2,11.904c0,16.975 38.379,6.971 38.379,30.15" style="fill:#231f20;fill-rule:nonzero;"/><path d="M1218.73,593.28c-0,-15.075 -11.784,-26.979 -26.859,-26.979c-15.071,0 -26.858,11.904 -26.858,26.979c-0,15.075 11.787,26.988 26.858,26.988c15.075,-0 26.859,-11.913 26.859,-26.988m6.337,0c0,18.75 -14.7,33.067 -32.812,33.067c-12.292,0 -22.046,-6.333 -27.242,-16.087l-0,40.025l-6.329,-0l-0,-88.671l6.329,-0l-0,14.691c5.196,-9.754 14.95,-16.087 27.242,-16.087c18.112,-0 32.812,14.312 32.812,33.062" style="fill:#231f20;fill-rule:nonzero;"/><path d="M1321.49,593.28c0,-15.075 -11.658,-26.979 -26.733,-26.979c-15.071,0 -26.854,11.904 -26.854,26.979c-0,15.075 11.783,26.988 26.854,26.988c15.075,-0 26.733,-11.913 26.733,-26.988m-60.045,0c-0,-18.75 14.82,-33.062 33.312,-33.062c18.371,-0 33.196,14.312 33.196,33.062c-0,18.75 -14.825,33.067 -33.196,33.067c-18.492,0 -33.312,-14.317 -33.312,-33.067" style="fill:#231f20;fill-rule:nonzero;"/><path d="M1395.99,560.726l0,6.079c-10.896,0 -21.158,6.713 -21.158,22.93l-0,35.216l-6.338,0l0,-63.337l6.338,-0l-0,12.412c4.308,-10.008 12.546,-13.3 21.158,-13.3" style="fill:#231f20;fill-rule:nonzero;"/><path d="M1448.58,567.817l0,41.17c0,11.15 5.95,11.4 18.871,10.263l0,5.7c-16.596,2.533 -25.333,-1.521 -25.333,-15.963l-0,-41.17l-13.938,-0l0,-6.205l13.938,0l-0,-15.837l6.462,-1.9l0,17.737l18.871,0l0,6.205l-18.871,-0Z" style="fill:#231f20;fill-rule:nonzero;"/><path d="M1508.01,561.615l6.333,-0l0,63.337l-6.333,0l-0,-63.337Zm-1.896,-20.396c-0,-2.662 2.279,-4.942 5.067,-4.942c2.787,0 5.066,2.28 5.066,4.942c0,2.788 -2.279,5.063 -5.066,5.063c-2.788,-0 -5.067,-2.275 -5.067,-5.063" style="fill:#231f20;fill-rule:nonzero;"/><path d="M1612.4,561.613l-26.729,63.338l-7.729,-0l-26.854,-63.338l6.846,0l23.808,56.754l23.946,-56.754l6.712,0Z" style="fill:#231f20;fill-rule:nonzero;"/><path d="M1702.49,593.28c0,-15.075 -11.658,-26.979 -26.733,-26.979c-15.071,0 -26.854,11.904 -26.854,26.979c-0,15.075 11.783,26.988 26.854,26.988c15.075,-0 26.733,-11.913 26.733,-26.988m6.463,-31.666l-0,63.337l-6.463,0l0,-14.316c-5.316,9.5 -15.07,15.712 -27.237,15.712c-17.988,0 -32.804,-14.317 -32.804,-33.067c-0,-18.75 14.816,-33.062 32.804,-33.062c12.167,-0 21.921,6.204 27.237,15.704l0,-14.308l6.463,-0Z" style="fill:#231f20;fill-rule:nonzero;"/><path d="M553.493,441.923c0,23.442 -20.383,33.429 -42.4,33.429c-20.383,0 -35.875,-7.745 -43.82,-24.258l26.495,-15.083c2.65,7.746 8.359,12.025 17.325,12.025c7.338,-0 11.009,-2.238 11.009,-6.317c-0,-11.212 -50.142,-5.3 -50.142,-40.567c0,-22.22 18.75,-33.433 39.954,-33.433c16.509,0 31.184,7.342 39.746,21.813l-26.092,14.066c-2.854,-5.3 -6.929,-8.966 -13.654,-8.966c-5.304,-0 -8.566,2.037 -8.566,5.704c-0,11.621 50.145,3.875 50.145,41.587" style="fill:#231f20;fill-rule:nonzero;"/><path d="M648.885,421.537c0,-15.287 -10.192,-24.87 -24.258,-24.87c-14.063,-0 -24.259,9.583 -24.259,24.87c0,15.288 10.196,24.871 24.259,24.871c14.066,0 24.258,-9.583 24.258,-24.871m30.579,0c0,30.375 -22.016,53.817 -48.721,53.817c-13.658,0 -23.645,-4.687 -30.375,-12.437l0,50.35l-30.57,-0l-0,-142.692l30.57,-0l0,9.579c6.73,-7.746 16.717,-12.433 30.375,-12.433c26.705,-0 48.721,23.441 48.721,53.816" style="fill:#231f20;fill-rule:nonzero;"/><path d="M769.147,421.537c-0,-14.475 -10.196,-24.054 -23.446,-24.054c-13.246,0 -23.442,9.579 -23.442,24.054c0,14.475 10.196,24.055 23.442,24.055c13.25,-0 23.446,-9.58 23.446,-24.055m-77.467,0c0,-30.375 24.063,-53.816 54.021,-53.816c29.967,-0 54.025,23.441 54.025,53.816c-0,30.375 -24.058,53.817 -54.025,53.817c-29.958,0 -54.021,-23.442 -54.021,-53.817" style="fill:#231f20;fill-rule:nonzero;"/><path d="M878.192,368.539l0,34.65c-12.637,-2.034 -30.575,3.058 -30.575,23.241l0,46.071l-30.579,0l0,-101.925l30.579,0l0,18.142c4.079,-13.658 17.734,-20.179 30.575,-20.179" style="fill:#231f20;fill-rule:nonzero;"/><path d="M934.243,399.929l-0,36.083c-0,8.763 7.545,9.58 21,8.763l-0,27.725c-39.959,4.079 -51.58,-7.95 -51.58,-36.488l0,-36.083l-16.304,0l0,-29.354l16.304,-0l0,-19.367l30.58,-9.171l-0,28.538l21,-0l-0,29.354l-21,0Z" style="fill:#231f20;fill-rule:nonzero;"/><path d="M1050.63,441.923c-0,23.442 -20.388,33.429 -42.4,33.429c-20.384,0 -35.88,-7.745 -43.821,-24.258l26.491,-15.083c2.655,7.746 8.363,12.025 17.33,12.025c7.337,-0 11.008,-2.238 11.008,-6.317c-0,-11.212 -50.146,-5.3 -50.146,-40.567c0,-22.22 18.754,-33.433 39.958,-33.433c16.505,0 31.184,7.342 39.746,21.813l-26.096,14.066c-2.85,-5.3 -6.929,-8.966 -13.65,-8.966c-5.308,-0 -8.566,2.037 -8.566,5.704c-0,11.621 50.146,3.875 50.146,41.587" style="fill:#231f20;fill-rule:nonzero;"/></g></svg>